Coordinates
version=1
nRows=34
nColumns=38
inDegrees=no

Units are S.I. units (second, meters, Newtons, ...)
If the header above contains a line with 'inDegrees', this indicates whether rotational values are in degrees (yes) or radians (no).

endheader
time	pelvis_tilt	pelvis_list	pelvis_rotation	pelvis_tx	pelvis_ty	pelvis_tz	hip_flexion_r	hip_adduction_r	hip_rotation_r	knee_angle_r	ankle_angle_r	subtalar_angle_r	mtp_angle_r	hip_flexion_l	hip_adduction_l	hip_rotation_l	knee_angle_l	ankle_angle_l	subtalar_angle_l	mtp_angle_l	lumbar_extension	lumbar_bending	lumbar_rotation	arm_flex_r	arm_add_r	arm_rot_r	elbow_flex_r	pro_sup_r	wrist_flex_r	wrist_dev_r	arm_flex_l	arm_add_l	arm_rot_l	elbow_flex_l	pro_sup_l	wrist_flex_l	wrist_dev_l
21.07	-2.16801	1.49162	0.689478	0.8568	-0.477544	1.06192	0.252715	-0.0012036	0.0762577	0.737209	-0.197114	0	0	-0.0278029	-0.074417	-0.311999	0.334939	-0.169948	0	0	-0.374025	0.11829	-0.0553689	0.834094	-0.475533	1.00523	0.742196	0.840517	0	0	0.284108	-0.252197	0.0750711	1.13646	1.5708	0	0
21.08	-2.13663	1.49038	0.658076	0.857507	-0.479406	1.06211	0.266324	0.0023939	0.079849	0.761591	-0.19676	0	0	-0.0324158	-0.076305	-0.312241	0.332382	-0.169855	0	0	-0.377149	0.119746	-0.0546782	0.828886	-0.48253	1.00635	0.752698	0.839154	0	0	0.27553	-0.249738	0.0714567	1.14348	1.5708	0	0
21.09	-2.10887	1.48875	0.630026	0.858063	-0.481324	1.06234	0.279283	0.00649681	0.0835662	0.782039	-0.193272	0	0	-0.0368382	-0.0784116	-0.31232	0.329665	-0.169877	0	0	-0.380442	0.121252	-0.0535786	0.823058	-0.490151	1.00596	0.764918	0.83717	0	0	0.266572	-0.247349	0.0673019	1.15096	1.5708	0	0
21.1	-2.08178	1.4869	0.602627	0.85852	-0.483341	1.06262	0.291352	0.0108238	0.0866017	0.798489	-0.187824	0	0	-0.041342	-0.080784	-0.312232	0.326845	-0.170008	0	0	-0.383721	0.122974	-0.0526789	0.816254	-0.497431	1.00374	0.778035	0.833831	0	0	0.257043	-0.245055	0.0621875	1.15898	1.5708	0	0
21.11	-2.06097	1.4848	0.58172	0.859018	-0.485426	1.06288	0.303	0.0145676	0.0879613	0.81037	-0.18191	0	0	-0.0454445	-0.0829579	-0.311757	0.323802	-0.1702	0	0	-0.386146	0.124915	-0.0524507	0.809992	-0.503934	1.0015	0.790398	0.832105	0	0	0.247166	-0.242785	0.0563761	1.16736	1.5708	0	0
21.12	-2.04796	1.4824	0.568829	0.859549	-0.487589	1.06307	0.314482	0.0176237	0.087701	0.818025	-0.176824	0	0	-0.0489251	-0.0850733	-0.311395	0.320787	-0.170444	0	0	-0.387365	0.126983	-0.0527911	0.804441	-0.509382	0.999751	0.800973	0.832663	0	0	0.237364	-0.240224	0.0497161	1.17549	1.5708	0	0
21.13	-2.03882	1.47974	0.560121	0.860074	-0.489821	1.06325	0.325702	0.0202434	0.086017	0.82161	-0.173014	0	0	-0.0516478	-0.0872654	-0.310887	0.318287	-0.17087	0	0	-0.388004	0.129395	-0.0532371	0.79929	-0.514124	0.997466	0.810201	0.8334	0	0	0.228262	-0.237111	0.0423869	1.18277	1.5708	0	0
21.14	-2.03032	1.47696	0.551882	0.860523	-0.49216	1.06348	0.336239	0.0228704	0.083628	0.820892	-0.170528	0	0	-0.0541539	-0.0896113	-0.310804	0.316158	-0.17148	0	0	-0.388245	0.132326	-0.0532815	0.794578	-0.518722	0.995994	0.818961	0.833731	0	0	0.220189	-0.233696	0.0354132	1.18843	1.5708	0	0
21.15	-2.0253	1.47425	0.546549	0.860906	-0.49454	1.06367	0.346512	0.0253757	0.0814106	0.816207	-0.168734	0	0	-0.0566661	-0.0916197	-0.311061	0.313838	-0.172146	0	0	-0.387785	0.13555	-0.0529974	0.790582	-0.522818	0.995388	0.826951	0.833074	0	0	0.213023	-0.230396	0.0294334	1.19235	1.5708	0	0
21.16	-2.02762	1.47125	0.548626	0.861248	-0.497049	1.06377	0.356839	0.0279258	0.0791452	0.807645	-0.168122	0	0	-0.0586885	-0.093546	-0.3114	0.311065	-0.172878	0	0	-0.385596	0.138865	-0.0530543	0.786542	-0.525754	0.995943	0.83316	0.832887	0	0	0.206043	-0.227474	0.0246099	1.19486	1.5708	0	0
21.17	-2.0351	1.46812	0.555956	0.86158	-0.499589	1.06379	0.366989	0.030532	0.0776431	0.795583	-0.168442	0	0	-0.0601881	-0.0952208	-0.311317	0.308184	-0.17345	0	0	-0.382735	0.142232	-0.0531702	0.782314	-0.528789	0.995889	0.839555	0.832417	0	0	0.199164	-0.224797	0.0207512	1.19731	1.5708	0	0
21.18	-2.03281	1.46602	0.553338	0.8618	-0.502046	1.06384	0.375087	0.0331629	0.077364	0.780197	-0.169483	0	0	-0.0629732	-0.0965517	-0.311204	0.305713	-0.173682	0	0	-0.384216	0.141842	-0.0520462	0.777201	-0.53367	0.993561	0.848976	0.830915	0	0	0.19226	-0.223345	0.0169638	1.20688	1.5708	0	0
21.19	-2.03287	1.464	0.552715	0.861964	-0.504538	1.06385	0.38257	0.0359753	0.0783438	0.761356	-0.171346	0	0	-0.0656579	-0.097592	-0.311108	0.303034	-0.174022	0	0	-0.38538	0.141734	-0.0506266	0.771922	-0.539334	0.992214	0.859244	0.826721	0	0	0.185203	-0.221629	0.0131924	1.21575	1.5708	0	0
21.2	-2.03434	1.46193	0.553337	0.862067	-0.507141	1.06381	0.389198	0.0391611	0.0801966	0.739806	-0.173794	0	0	-0.0681746	-0.0987308	-0.310962	0.300862	-0.174077	0	0	-0.385905	0.141705	-0.0492644	0.766931	-0.544974	0.992332	0.868968	0.822722	0	0	0.177483	-0.219688	0.00893784	1.22402	1.5708	0	0
21.21	-2.03714	1.45994	0.555058	0.862129	-0.509822	1.06373	0.395001	0.0424369	0.0828836	0.715456	-0.177325	0	0	-0.0704482	-0.0997903	-0.31125	0.299086	-0.17394	0	0	-0.385931	0.1417	-0.0480579	0.762462	-0.550681	0.994086	0.878511	0.818777	0	0	0.168996	-0.217763	0.00451674	1.23171	1.5708	0	0
21.22	-2.04167	1.45804	0.558294	0.862092	-0.512578	1.06361	0.399886	0.0458333	0.0868547	0.688354	-0.18184	0	0	-0.0723971	-0.100663	-0.311521	0.297853	-0.173636	0	0	-0.385597	0.141493	-0.0468515	0.758103	-0.556503	0.996782	0.8881	0.814746	0	0	0.159921	-0.216173	0.000328725	1.23908	1.5708	0	0
21.23	-2.04693	1.45628	0.562041	0.86194	-0.515396	1.06346	0.403548	0.0494666	0.0925724	0.65862	-0.187909	0	0	-0.0745859	-0.101353	-0.311299	0.29648	-0.173128	0	0	-0.385198	0.141234	-0.0455459	0.75399	-0.562634	1.00042	0.898142	0.810332	0	0	0.150429	-0.215005	-0.00377712	1.24656	1.5708	0	0
21.24	-2.05212	1.45482	0.565833	0.861738	-0.518254	1.0633	0.406321	0.0528417	0.0988995	0.627623	-0.195206	0	0	-0.0770019	-0.101716	-0.310503	0.295085	-0.172578	0	0	-0.38471	0.140968	-0.0444474	0.750136	-0.568706	1.00472	0.90797	0.80573	0	0	0.140795	-0.214218	-0.00768665	1.25394	1.5708	0	0
21.25	-2.05451	1.45343	0.566876	0.861514	-0.52126	1.06316	0.407345	0.0561655	0.105824	0.593812	-0.205042	0	0	-0.0796813	-0.102319	-0.310428	0.293943	-0.172062	0	0	-0.384478	0.1411	-0.043446	0.746783	-0.57518	1.01048	0.918333	0.800451	0	0	0.130668	-0.213365	-0.0120663	1.26162	1.5708	0	0
21.26	-2.05282	1.45215	0.563925	0.861237	-0.524461	1.06304	0.406847	0.0596188	0.113278	0.559196	-0.215496	0	0	-0.0830918	-0.103224	-0.310568	0.292828	-0.171424	0	0	-0.384187	0.141614	-0.0425239	0.74337	-0.581475	1.01681	0.928466	0.795286	0	0	0.120225	-0.212485	-0.0165217	1.26884	1.5708	0	0
21.27	-2.05827	1.45073	0.567839	0.860839	-0.52788	1.06276	0.406924	0.0628229	0.121651	0.526198	-0.217726	0	0	-0.0855512	-0.10415	-0.311845	0.292696	-0.170636	0	0	-0.382722	0.141303	-0.0399801	0.733323	-0.587861	1.01116	0.93987	0.805874	0	0	0.110548	-0.211688	-0.0189927	1.27506	1.5708	0	0
21.28	-2.0591	1.44968	0.567588	0.860464	-0.531274	1.06249	0.405485	0.0655407	0.129388	0.492137	-0.231728	0	0	-0.0887944	-0.105018	-0.31216	0.292178	-0.169774	0	0	-0.381653	0.141927	-0.0393195	0.729586	-0.594154	1.01795	0.950628	0.799597	0	0	0.0999899	-0.211089	-0.02302	1.28132	1.5708	0	0
21.29	-2.06383	1.4486	0.571136	0.859982	-0.534812	1.0621	0.404313	0.0677951	0.136826	0.459026	-0.244628	0	0	-0.0915615	-0.105737	-0.312704	0.292043	-0.168798	0	0	-0.379391	0.142488	-0.038935	0.725535	-0.599726	1.02497	0.960562	0.794057	0	0	0.0890261	-0.210928	-0.0265296	1.28686	1.5708	0	0
21.3	-2.05724	1.44804	0.563768	0.859486	-0.538548	1.06184	0.40022	0.0699052	0.142738	0.424286	-0.269533	0	0	-0.0958047	-0.106915	-0.314231	0.292235	-0.167405	0	0	-0.37741	0.144434	-0.0409124	0.72905	-0.604247	1.04727	0.968124	0.770707	0	0	0.0763672	-0.211054	-0.03181	1.29212	1.5708	0	0
21.31	-2.06752	1.44699	0.573543	0.858944	-0.542395	1.0613	0.399008	0.0712141	0.147759	0.394694	-0.280555	0	0	-0.0976292	-0.107411	-0.31516	0.292889	-0.165989	0	0	-0.372954	0.145125	-0.0413528	0.723809	-0.608886	1.05414	0.97667	0.76745	0	0	0.0649567	-0.211337	-0.0342038	1.29614	1.5708	0	0
21.32	-2.07726	1.44636	0.583278	0.858418	-0.546357	1.06074	0.396663	0.0720086	0.15178	0.36522	-0.290185	0	0	-0.0996764	-0.107759	-0.315604	0.293978	-0.16386	0	0	-0.36873	0.145627	-0.0417258	0.716247	-0.614178	1.05676	0.986709	0.766841	0	0	0.0537127	-0.211801	-0.0358079	1.30021	1.5708	0	0
21.33	-2.08187	1.44728	0.588125	0.857766	-0.550494	1.06013	0.393569	0.0724394	0.154294	0.340877	-0.2924	0	0	-0.103414	-0.107487	-0.316754	0.295151	-0.162301	0	0	-0.368636	0.142031	-0.0420637	0.705219	-0.619828	1.05151	0.999946	0.767568	0	0	0.0409953	-0.2136	-0.0388899	1.3116	1.5708	0	0
21.34	-2.07662	1.44925	0.583756	0.857083	-0.554822	1.05959	0.388443	0.0723695	0.154842	0.319263	-0.29167	0	0	-0.108788	-0.10747	-0.318542	0.296791	-0.160863	0	0	-0.372344	0.136287	-0.0439774	0.69377	-0.624392	1.04342	1.01439	0.769316	0	0	0.0260072	-0.216355	-0.0447795	1.32923	1.5708	0	0
21.35	-2.06952	1.45171	0.577751	0.856375	-0.559286	1.05905	0.38274	0.0718327	0.154128	0.300402	-0.290136	0	0	-0.114556	-0.107324	-0.320541	0.298835	-0.159609	0	0	-0.37559	0.130788	-0.046741	0.682597	-0.627947	1.03708	1.02743	0.773634	0	0	0.010527	-0.219271	-0.0509027	1.34581	1.5708	0	0
21.36	-2.07144	1.45397	0.581448	0.855671	-0.563868	1.05836	0.377978	0.0709438	0.152378	0.283963	-0.289681	0	0	-0.118933	-0.10695	-0.321475	0.301344	-0.158554	0	0	-0.376353	0.125411	-0.0517557	0.671545	-0.62849	1.03192	1.0366	0.781535	0	0	-0.0065418	-0.222387	-0.0581291	1.36136	1.5708	0	0
21.37	-2.09299	1.45515	0.605163	0.854913	-0.568796	1.05751	0.375576	0.0701498	0.149679	0.270422	-0.290267	0	0	-0.120836	-0.106215	-0.320959	0.303452	-0.158144	0	0	-0.37066	0.114141	-0.0582075	0.655018	-0.612702	1.01797	1.02243	0.790981	0	0	-0.0253408	-0.226593	-0.0651915	1.37678	1.5708	0	0
21.38	-2.16543	1.45357	0.680301	0.853988	-0.574193	1.05622	0.379581	0.0682254	0.147108	0.260071	-0.293587	0	0	-0.115505	-0.10409	-0.317357	0.30612	-0.158295	0	0	-0.358361	0.0931444	-0.0715611	0.541579	-0.530387	0.774585	0.980136	0.993905	0	0	-0.0532914	-0.230464	-0.083315	1.40252	1.5708	0	0
21.39	-2.14159	1.45812	0.659881	0.853365	-0.579125	1.05582	0.36961	0.0678698	0.141703	0.251486	-0.298229	0	0	-0.123373	-0.104614	-0.317938	0.310129	-0.156384	0	0	-0.368548	0.0889497	-0.0635718	0.470322	-0.524458	0.648952	1.02335	1.08262	0	0	-0.0591318	-0.234302	-0.07612	1.4158	1.5708	0	0
21.4	-2.11812	1.46282	0.639818	0.852657	-0.584148	1.05526	0.361007	0.0676534	0.136632	0.250093	-0.298339	0	0	-0.131011	-0.105097	-0.318543	0.314657	-0.155567	0	0	-0.37214	0.0891716	-0.0676361	0.449867	-0.532121	0.637556	1.04956	1.09028	0	0	-0.0738246	-0.237023	-0.0800347	1.42484	1.5708	0	0
